HIERARCHY
ROOT joint_Root
{
	OFFSET 0.0 0.0 0.0
	CHANNELS 6 Xposition Yposition Zposition Zrotation Xrotation Yrotation 
	JOINT Hips
	{
		OFFSET 4.5925 91.4895 -427.239
		CHANNELS 6 Xposition Yposition Zposition Zrotation Xrotation Yrotation 
		JOINT Spine
		{
			OFFSET 15.7357 0.0 0.0
			CHANNELS 6 Xposition Yposition Zposition Zrotation Xrotation Yrotation 
			JOINT Chest
			{
				OFFSET 8.98455 -0.406207 0.0
				CHANNELS 6 Xposition Yposition Zposition Zrotation Xrotation Yrotation 
				JOINT Neck
				{
					OFFSET 16.3773 0.0 0.0
					CHANNELS 6 Xposition Yposition Zposition Zrotation Xrotation Yrotation 
					JOINT Head
					{
						OFFSET 6.45672 0.0 0.0
						CHANNELS 6 Xposition Yposition Zposition Zrotation Xrotation Yrotation 
						End Site
						{
							OFFSET 0.0 0.0 0.0
						}
					}
				}
				JOINT Shoulder_L
				{
					OFFSET 12.9942 -0.242716 4.98039
					CHANNELS 6 Xposition Yposition Zposition Zrotation Xrotation Yrotation 
					JOINT UpperArm_L
					{
						OFFSET 5.34809 0.0 0.0
						CHANNELS 6 Xposition Yposition Zposition Zrotation Xrotation Yrotation 
						JOINT LowerArm_L
						{
							OFFSET 24.3286 1.87007e-05 0.0
							CHANNELS 6 Xposition Yposition Zposition Zrotation Xrotation Yrotation 
							JOINT Hand_L
							{
								OFFSET 22.2916 0.0 0.0
								CHANNELS 6 Xposition Yposition Zposition Zrotation Xrotation Yrotation 
								End Site
								{
									OFFSET 0.0 0.0 0.0
								}
							}
						}
					}
				}
				JOINT Shoulder_R
				{
					OFFSET 12.9945 -0.242716 -4.98039
					CHANNELS 6 Xposition Yposition Zposition Zrotation Xrotation Yrotation 
					JOINT UpperArm_R
					{
						OFFSET -5.34813 0.0 0.0
						CHANNELS 6 Xposition Yposition Zposition Zrotation Xrotation Yrotation 
						JOINT LowerArm_R
						{
							OFFSET -24.3289 0.000322201 0.0
							CHANNELS 6 Xposition Yposition Zposition Zrotation Xrotation Yrotation 
							JOINT Hand_R
							{
								OFFSET -22.2915 -0.000108084 0.0
								CHANNELS 6 Xposition Yposition Zposition Zrotation Xrotation Yrotation 
								End Site
								{
									OFFSET 0.0 0.0 0.0
								}
							}
						}
					}
				}
			}
		}
		JOINT UpperLeg_L
		{
			OFFSET -2.19248 -6.46944 0.0
			CHANNELS 6 Xposition Yposition Zposition Zrotation Xrotation Yrotation 
			JOINT LowerLeg_L
			{
				OFFSET 39.0811 0.0 -1.23785e-05
				CHANNELS 6 Xposition Yposition Zposition Zrotation Xrotation Yrotation 
				JOINT Foot_L
				{
					OFFSET 40.9854 0.0 -1.26872e-05
					CHANNELS 6 Xposition Yposition Zposition Zrotation Xrotation Yrotation 
					JOINT Toes_L
					{
						OFFSET 11.7543 0.0 0.0
						CHANNELS 6 Xposition Yposition Zposition Zrotation Xrotation Yrotation 
						End Site
						{
							OFFSET 0.0 0.0 0.0
						}
					}
				}
			}
		}
		JOINT UpperLeg_R
		{
			OFFSET -2.19251 6.46944 0.0
			CHANNELS 6 Xposition Yposition Zposition Zrotation Xrotation Yrotation 
			JOINT LowerLeg_R
			{
				OFFSET -39.0811 -0.00228153 -0.0401928
				CHANNELS 6 Xposition Yposition Zposition Zrotation Xrotation Yrotation 
				JOINT Foot_R
				{
					OFFSET -40.9854 0.0 0.0
					CHANNELS 6 Xposition Yposition Zposition Zrotation Xrotation Yrotation 
					JOINT Toes_R
					{
						OFFSET -11.7543 0.0 0.0
						CHANNELS 6 Xposition Yposition Zposition Zrotation Xrotation Yrotation 
						End Site
						{
							OFFSET 0.0 0.0 0.0
						}
					}
				}
			}
		}
	}
}
MOTION
Frames:	6
Frame Time:	0.0333333
0.000000 0.000000 0.000000 0.000000 0.000000 -0.000000 128.165000 89.925300 -57.485900 88.155600 2.688560 0.147695 15.735700 0.000005 -0.000001 76.941400 81.847900 -76.685400 8.984550 -0.406207 -0.000000 8.137350 -3.666870 0.772611 16.377300 -0.000001 -0.000001 -1.517680 -5.089040 1.267430 6.456720 -0.000001 -0.000000 -4.805820 -4.050640 2.373130 12.994200 -0.242716 4.980390 -90.661700 2.464510 -74.966400 5.348090 -0.000007 -0.000001 -50.807200 30.246000 -36.061000 24.328600 0.000019 0.000005 9.988680 12.035000 -40.187100 22.291600 -0.000001 0.000005 16.495900 5.228230 2.001630 12.994500 -0.242716 -4.980390 88.212900 9.820510 -79.633700 -5.348130 -0.000001 -0.000004 -68.482500 25.747800 0.881918 -24.328900 0.000322 -0.000009 0.709867 2.296380 -17.206700 -22.291500 -0.000108 -0.000004 13.359800 5.328730 -0.748695 -2.192480 -6.469440 -0.000000 -177.314000 -6.450590 -4.937220 39.081100 -0.000007 -0.000012 -0.135989 0.224651 31.188200 40.985400 -0.000006 -0.000013 2.048730 -0.116762 -76.559100 11.754300 -0.000000 0.000003 -1.058440 -1.403200 -15.752000 -2.192510 6.469440 -0.000001 -172.759000 21.928200 151.438000 -39.081100 -0.002282 -0.040193 0.017232 -0.024522 29.597400 -40.985400 0.000008 0.000006 1.361230 2.635340 -61.783300 -11.754300 -0.000006 -0.000006 -0.014305 -0.133393 -22.014500
0.000000 0.000000 0.000000 0.000000 0.000000 -0.000000 127.893000 89.465200 -55.119000 87.979300 3.303890 -0.094573 15.735700 0.000005 -0.000001 77.152500 82.022400 -76.590100 8.984550 -0.406207 -0.000000 7.818510 -3.532910 1.365410 16.377300 -0.000001 -0.000001 -1.124710 -5.240320 1.136210 6.456720 -0.000001 -0.000000 -4.634480 -4.326240 1.952000 12.994200 -0.242716 4.980390 -90.675200 2.502220 -74.893500 5.348090 -0.000007 -0.000001 -51.021900 30.804000 -36.064000 24.328600 0.000019 0.000005 10.131200 11.875600 -40.968400 22.291600 -0.000001 0.000005 16.601700 5.231460 1.917820 12.994500 -0.242716 -4.980390 88.208700 9.857270 -79.646900 -5.348130 -0.000001 -0.000004 -68.137200 26.866200 -0.061842 -24.328900 0.000322 -0.000009 0.841426 2.717160 -17.233100 -22.291500 -0.000108 -0.000004 13.146000 5.322300 -0.561041 -2.192480 -6.469440 -0.000000 -176.856000 -6.335870 -3.928780 39.081100 -0.000007 -0.000012 -0.000190 0.000305 31.989700 40.985400 -0.000006 -0.000013 3.460230 -0.275710 -78.308600 11.754300 -0.000000 0.000003 -1.608010 -2.119640 -15.336700 -2.192510 6.469440 -0.000001 -172.106000 21.156800 150.952000 -39.081100 -0.002282 -0.040193 0.023839 -0.033712 31.353100 -40.985400 0.000008 0.000006 6.575210 1.687530 -59.520600 -11.754300 -0.000006 -0.000006 -0.015556 -0.141294 -22.338800
0.000000 0.000000 0.000000 0.000000 0.000000 -0.000000 127.547000 89.021400 -52.470600 87.637500 3.980010 -0.004500 15.735700 0.000005 -0.000001 77.873300 82.168200 -76.922400 8.984550 -0.406207 -0.000000 7.585470 -3.279190 2.117740 16.377300 -0.000001 -0.000001 -0.709783 -5.479150 1.045730 6.456720 -0.000001 -0.000000 -4.145970 -4.632670 1.423990 12.994200 -0.242716 4.980390 -90.765300 2.808990 -74.753800 5.348090 -0.000007 -0.000001 -51.646500 31.596900 -35.200700 24.328600 0.000019 0.000005 10.624800 12.268700 -41.437800 22.291600 -0.000001 0.000005 16.384600 5.230590 1.940060 12.994500 -0.242716 -4.980390 88.124000 10.198200 -79.519000 -5.348130 -0.000001 -0.000004 -67.140300 28.239600 -1.523440 -24.328900 0.000322 -0.000009 0.874184 2.790350 -17.422700 -22.291500 -0.000108 -0.000004 13.048800 5.319570 -0.483231 -2.192480 -6.469440 -0.000000 -175.753000 -6.304450 -3.807920 39.081100 -0.000007 -0.000012 0.000584 -0.000828 35.136500 40.985400 -0.000006 -0.000013 2.903740 0.517427 -78.820300 11.754300 -0.000000 0.000003 -0.212599 -0.248455 -15.822300 -2.192510 6.469440 -0.000001 -172.424000 19.064900 151.253000 -39.081100 -0.002282 -0.040193 0.023918 -0.030749 33.851000 -40.985400 0.000008 0.000006 7.989960 -0.506644 -57.902100 -11.754300 -0.000006 -0.000006 -0.011263 -0.112846 -21.172400
0.000000 0.000000 0.000000 0.000000 0.000000 -0.000000 127.283000 88.729200 -49.810200 87.942700 3.856180 0.635174 15.735700 0.000005 -0.000001 79.890900 82.135100 -78.812000 8.984550 -0.406207 -0.000000 7.753210 -2.749880 2.342260 16.377300 -0.000001 -0.000001 -0.462432 -5.561990 1.045050 6.456720 -0.000001 -0.000000 -3.678990 -4.837510 0.962761 12.994200 -0.242716 4.980390 -90.871200 3.177780 -74.659900 5.348090 -0.000007 -0.000001 -53.416600 32.062100 -32.765900 24.328600 0.000019 0.000005 11.199400 12.811100 -41.762200 22.291600 -0.000001 0.000005 16.436200 5.232010 1.903520 12.994500 -0.242716 -4.980390 88.062800 10.617800 -79.598000 -5.348130 -0.000001 -0.000004 -65.648900 29.476200 -3.710260 -24.328900 0.000322 -0.000009 0.722576 2.255320 -17.794800 -22.291500 -0.000108 -0.000004 13.200900 5.322320 -0.562571 -2.192480 -6.469440 -0.000000 -175.368000 -6.439190 -4.862450 39.081100 -0.000007 -0.000012 0.009780 -0.011177 41.178400 40.985400 -0.000006 -0.000013 1.904590 1.332510 -76.512800 11.754300 -0.000000 0.000003 -0.010998 -0.110960 -21.098900 -2.192510 6.469440 -0.000001 -173.516000 16.506200 152.217000 -39.081100 -0.002282 -0.040193 0.024500 -0.027835 37.313300 -40.985400 0.000008 0.000006 9.029660 -2.929280 -60.567100 -11.754300 -0.000006 -0.000006 -0.008375 -0.091063 -20.281600
0.000000 0.000000 0.000000 0.000000 0.000000 -0.000000 127.089000 88.616100 -47.268900 88.468800 3.578900 1.783100 15.735700 0.000005 -0.000001 81.462100 81.817900 -80.395400 8.984550 -0.406207 -0.000000 8.445910 -2.411790 2.309580 16.377300 -0.000001 -0.000001 -0.187821 -5.480460 1.278370 6.456720 -0.000001 -0.000000 -3.543250 -4.822030 0.559305 12.994200 -0.242716 4.980390 -90.860000 3.106430 -74.517300 5.348090 -0.000007 -0.000001 -56.233100 32.204500 -29.431800 24.328600 0.000019 0.000005 11.011800 12.842800 -41.200200 22.291600 -0.000001 0.000005 16.627000 5.233660 1.860610 12.994500 -0.242716 -4.980390 88.165900 10.449100 -79.986700 -5.348130 -0.000001 -0.000004 -64.454700 30.281400 -6.936450 -24.328900 0.000322 -0.000009 0.767640 2.343140 -18.166400 -22.291500 -0.000108 -0.000004 13.760200 5.332750 -0.866552 -2.192480 -6.469440 -0.000000 -175.164000 -6.921030 -7.546350 39.081100 -0.000007 -0.000012 0.039167 -0.033216 49.696900 40.985400 -0.000006 -0.000013 1.344860 2.215500 -70.133200 11.754300 -0.000000 0.000003 -0.050644 -0.300062 -28.938000 -2.192510 6.469440 -0.000001 -174.588000 16.806300 154.264000 -39.081100 -0.002282 -0.040193 0.049457 -0.055945 39.536800 -40.985400 0.000008 0.000006 9.300090 -2.821950 -63.562500 -11.754300 -0.000006 -0.000006 -0.007466 -0.083617 -19.977500
0.000000 0.000000 0.000000 0.000000 0.000000 -0.000000 126.870000 88.618600 -44.983100 88.911700 3.510580 2.853580 15.735700 0.000005 -0.000001 82.824300 81.490900 -81.771300 8.984550 -0.406207 -0.000000 9.143760 -2.101700 2.272610 16.377300 -0.000001 -0.000001 0.084455 -5.582640 1.604580 6.456720 -0.000001 -0.000000 -3.424480 -4.965050 0.311411 12.994200 -0.242716 4.980390 -90.854400 3.076760 -74.472300 5.348090 -0.000007 -0.000001 -58.479000 32.780200 -26.522400 24.328600 0.000019 0.000005 10.126300 12.607900 -39.290500 22.291600 -0.000001 0.000005 16.125900 5.239160 1.717530 12.994500 -0.242716 -4.980390 88.281100 10.067000 -80.258700 -5.348130 -0.000001 -0.000004 -63.223300 30.363800 -10.340700 -24.328900 0.000322 -0.000009 0.830258 2.345950 -19.518800 -22.291500 -0.000108 -0.000004 14.318700 5.332060 -0.842793 -2.192480 -6.469440 -0.000000 -174.980000 -6.751840 -12.194000 39.081100 -0.000007 -0.000012 0.089713 -0.053317 59.274800 40.985400 -0.000006 -0.000013 -0.637143 1.985600 -61.509600 11.754300 -0.000000 0.000003 -0.030171 -0.218260 -25.518900 -2.192510 6.469440 -0.000001 -175.656000 18.471600 156.649000 -39.081100 -0.002282 -0.040193 0.006725 -0.004015 40.663500 -40.985400 0.000008 0.000006 8.893910 -1.330650 -66.089300 -11.754300 -0.000006 -0.000006 -0.006499 -0.075303 -19.638200
